# This file uses centimeters as units for non-parametric coordinates.

mtllib luces2.mtl
g default
v 5988.741211 500.121765 -2861.545166
v 5988.741211 495.121765 -2865.177734
v 5988.740723 488.941467 -2865.177734
v 5988.740723 483.941467 -2861.545166
v 5988.741211 482.031616 -2855.667236
v 5988.740723 483.941467 -2849.789307
v 5988.740723 488.941467 -2846.156738
v 5988.741211 495.121765 -2846.156738
v 5988.741211 500.121765 -2849.789307
v 5988.741211 502.031616 -2855.667236
v 5488.741211 500.121796 -2861.545166
v 5488.741211 495.121796 -2865.177734
v 5488.740723 488.941467 -2865.177734
v 5488.740723 483.941467 -2861.545166
v 5488.741211 482.031616 -2855.667236
v 5488.740723 483.941467 -2849.789307
v 5488.740723 488.941467 -2846.156738
v 5488.741211 495.121796 -2846.156738
v 5488.741211 500.121796 -2849.789307
v 5488.741211 502.031616 -2855.667236
v 5988.741211 492.031616 -2855.667236
v 5488.741211 492.031616 -2855.667236
v 5408.187988 500.121765 -2861.545166
v 5408.187988 495.121765 -2865.177734
v 5408.187500 488.941467 -2865.177734
v 5408.187500 483.941467 -2861.545166
v 5408.187988 482.031616 -2855.667236
v 5408.187500 483.941467 -2849.789307
v 5408.187500 488.941467 -2846.156738
v 5408.187988 495.121765 -2846.156738
v 5408.187988 500.121765 -2849.789307
v 5408.187988 502.031616 -2855.667236
v 4908.187988 500.121796 -2861.545166
v 4908.187988 495.121796 -2865.177734
v 4908.187500 488.941467 -2865.177734
v 4908.187500 483.941467 -2861.545166
v 4908.187988 482.031616 -2855.667236
v 4908.187500 483.941467 -2849.789307
v 4908.187500 488.941467 -2846.156738
v 4908.187988 495.121796 -2846.156738
v 4908.187988 500.121796 -2849.789307
v 4908.187988 502.031616 -2855.667236
v 5408.187988 492.031616 -2855.667236
v 4908.187988 492.031616 -2855.667236
v 4835.334961 500.121765 -2861.545166
v 4835.334961 495.121765 -2865.177734
v 4835.334961 488.941467 -2865.177734
v 4835.334961 483.941467 -2861.545166
v 4835.334961 482.031616 -2855.667236
v 4835.334961 483.941467 -2849.789307
v 4835.334961 488.941467 -2846.156738
v 4835.334961 495.121765 -2846.156738
v 4835.334961 500.121765 -2849.789307
v 4835.334961 502.031616 -2855.667236
v 4335.334961 500.121796 -2861.545166
v 4335.334961 495.121796 -2865.177734
v 4335.334961 488.941467 -2865.177734
v 4335.334961 483.941467 -2861.545166
v 4335.334961 482.031616 -2855.667236
v 4335.334961 483.941467 -2849.789307
v 4335.334961 488.941467 -2846.156738
v 4335.334961 495.121796 -2846.156738
v 4335.334961 500.121796 -2849.789307
v 4335.334961 502.031616 -2855.667236
v 4835.334961 492.031616 -2855.667236
v 4335.334961 492.031616 -2855.667236
v 4261.185059 500.121765 -2861.545166
v 4261.185059 495.121765 -2865.177734
v 4261.184570 488.941467 -2865.177734
v 4261.184570 483.941467 -2861.545166
v 4261.185059 482.031616 -2855.667236
v 4261.184570 483.941467 -2849.789307
v 4261.184570 488.941467 -2846.156738
v 4261.185059 495.121765 -2846.156738
v 4261.185059 500.121765 -2849.789307
v 4261.185059 502.031616 -2855.667236
v 3761.184814 500.121796 -2861.545166
v 3761.184814 495.121796 -2865.177734
v 3761.185059 488.941467 -2865.177734
v 3761.185059 483.941467 -2861.545166
v 3761.185059 482.031616 -2855.667236
v 3761.185059 483.941467 -2849.789307
v 3761.185059 488.941467 -2846.156738
v 3761.184814 495.121796 -2846.156738
v 3761.184814 500.121796 -2849.789307
v 3761.185059 502.031616 -2855.667236
v 4261.185059 492.031616 -2855.667236
v 3761.185059 492.031616 -2855.667236
vt 0.160134 0.035214
vt 0.150169 0.030687
vt 0.162118 0.017614
vt 0.144767 0.021166
vt 0.170858 0.033019
vt 0.145993 0.010289
vt 0.178243 0.024940
vt 0.153378 0.002210
vt 0.179469 0.014063
vt 0.164102 0.000015
vt 0.174068 0.004542
vt 0.301871 0.006068
vt 0.310991 0.000016
vt 0.315745 0.017077
vt 0.321928 0.000480
vt 0.298050 0.016325
vt 0.330502 0.007284
vt 0.300988 0.026870
vt 0.333440 0.017828
vt 0.309562 0.033673
vt 0.329619 0.028086
vt 0.320498 0.034138
vt 0.191589 0.032977
vt 0.184251 0.024855
vt 0.200418 0.017623
vt 0.183088 0.013971
vt 0.202300 0.035234
vt 0.188544 0.004482
vt 0.212292 0.030764
vt 0.198536 0.000013
vt 0.217748 0.021275
vt 0.209247 0.002270
vt 0.216585 0.010391
vt 0.225230 0.006068
vt 0.234350 0.000016
vt 0.239104 0.017077
vt 0.245286 0.000480
vt 0.221409 0.016325
vt 0.253861 0.007284
vt 0.224346 0.026870
vt 0.256799 0.017828
vt 0.232921 0.033673
vt 0.252977 0.028086
vt 0.243857 0.034138
vt 0.009636 0.033337
vt 0.001820 0.025674
vt 0.017520 0.017477
vt 0.000000 0.014880
vt 0.020464 0.034942
vt 0.004872 0.005078
vt 0.030167 0.029876
vt 0.014576 0.000013
vt 0.035039 0.020074
vt 0.025403 0.001618
vt 0.033220 0.009280
vt 0.336673 0.023647
vt 0.336371 0.012706
vt 0.353359 0.017711
vt 0.342557 0.003676
vt 0.343349 0.032322
vt 0.352870 0.000007
vt 0.353849 0.035416
vt 0.363370 0.003101
vt 0.364161 0.031747
vt 0.370046 0.011775
vt 0.370348 0.022717
vt 0.120936 0.034905
vt 0.111262 0.029783
vt 0.123981 0.017458
vt 0.106446 0.019953
vt 0.131772 0.033363
vt 0.108328 0.009170
vt 0.139633 0.025745
vt 0.116189 0.001553
vt 0.141515 0.014962
vt 0.127026 0.000011
vt 0.136699 0.005132
vt 0.263550 0.006068
vt 0.272671 0.000016
vt 0.277424 0.017077
vt 0.283607 0.000480
vt 0.259729 0.016325
vt 0.292181 0.007284
vt 0.262667 0.026870
vt 0.295119 0.017828
vt 0.271242 0.033673
vt 0.291298 0.028086
vt 0.282178 0.034138
vt 0.885549 0.748242
vt 0.885550 0.759189
vt 0.000001 0.759189
vt 0.000000 0.748242
vt 0.885549 0.770135
vt 0.000000 0.770135
vt 0.885549 0.737297
vt 0.000000 0.737297
vt 0.885549 0.781080
vt 0.000000 0.781081
vt 0.885550 0.693513
vt 0.885550 0.704459
vt 0.000001 0.704459
vt 0.000001 0.693513
vt 0.885550 0.715405
vt 0.000001 0.715405
vt 0.885550 0.682567
vt 0.000001 0.682567
vt 0.885550 0.726351
vt 0.000001 0.726351
vt 0.000001 0.879594
vt 0.000000 0.868648
vt 0.885549 0.868648
vt 0.885550 0.879594
vt 0.000001 0.857702
vt 0.885550 0.857702
vt 0.000001 0.890540
vt 0.885550 0.890540
vt 0.000001 0.846756
vt 0.885550 0.846756
vt 0.000000 0.824865
vt 0.000000 0.813918
vt 0.885549 0.813918
vt 0.885549 0.824865
vt 0.000000 0.802972
vt 0.885549 0.802972
vt 0.000000 0.835810
vt 0.885549 0.835810
vt 0.000000 0.792026
vt 0.885549 0.792026
vt 0.725997 0.598181
vt 0.718704 0.606344
vt 0.711410 0.614507
vt 0.733290 0.590019
vt 0.704117 0.622669
vt 0.689532 0.638994
vt 0.682238 0.647156
vt 0.674945 0.655319
vt 0.696824 0.630831
vt 0.667652 0.663481
vt 0.885548 0.912432
vt 0.885549 0.923378
vt 0.000000 0.923378
vt 0.000000 0.912432
vt 0.885548 0.934324
vt 0.000000 0.934324
vt 0.885548 0.901486
vt 0.000000 0.901486
vt 0.885548 0.945270
vt 0.000000 0.945270
vt 0.885549 0.967162
vt 0.885549 0.978108
vt 0.000000 0.978108
vt 0.000000 0.967162
vt 0.885549 0.989054
vt 0.000000 0.989054
vt 0.885549 0.956216
vt 0.000000 0.956216
vt 0.885549 1.000000
vt 0.000000 1.000000
vt 0.885549 0.671621
vt 0.000000 0.671621
vt 0.000001 0.781081
vt 0.885550 0.781080
vt 0.660359 0.671644
vt 0.885549 0.890540
vt 0.000000 0.890540
vt 0.000000 0.081625
vt 0.021879 0.057137
vt 0.014586 0.065300
vt 0.029172 0.048975
vt 0.036465 0.040812
vt 0.043758 0.032650
vt 0.051051 0.024488
vt 0.058344 0.016325
vt 0.065637 0.008162
vt 0.072930 0.000000
vt 0.007293 0.073462
vn 0.000000 0.587770 -0.809028
vn 0.000000 0.587770 -0.809028
vn 0.000000 0.587770 -0.809028
vn 0.000000 0.587770 -0.809028
vn -0.000000 0.000000 -1.000000
vn -0.000000 0.000000 -1.000000
vn -0.000000 0.000000 -1.000000
vn -0.000000 0.000000 -1.000000
vn 0.000000 -0.587770 -0.809028
vn 0.000000 -0.587770 -0.809028
vn 0.000000 -0.587770 -0.809028
vn 0.000000 -0.587770 -0.809028
vn 0.000000 -0.951057 -0.309016
vn 0.000000 -0.951057 -0.309016
vn 0.000000 -0.951057 -0.309016
vn 0.000000 -0.951057 -0.309016
vn 0.000000 -0.951057 0.309016
vn 0.000000 -0.951057 0.309016
vn 0.000000 -0.951057 0.309016
vn 0.000000 -0.951057 0.309016
vn 0.000000 -0.587770 0.809028
vn 0.000000 -0.587770 0.809028
vn 0.000000 -0.587770 0.809028
vn 0.000000 -0.587770 0.809028
vn -0.000001 0.000000 1.000000
vn -0.000001 0.000000 1.000000
vn -0.000001 0.000000 1.000000
vn -0.000001 0.000000 1.000000
vn 0.000000 0.587770 0.809028
vn 0.000000 0.587770 0.809028
vn 0.000000 0.587770 0.809028
vn 0.000000 0.587770 0.809028
vn -0.000000 0.951056 0.309020
vn -0.000000 0.951056 0.309020
vn -0.000000 0.951056 0.309020
vn -0.000000 0.951056 0.309020
vn 0.000000 0.951056 -0.309020
vn 0.000000 0.951056 -0.309020
vn 0.000000 0.951056 -0.309020
vn 0.000000 0.951056 -0.309020
vn 1.000000 0.000000 -0.000013
vn 1.000000 0.000000 0.000000
vn 1.000000 -0.000013 -0.000000
vn 1.000000 0.000000 -0.000034
vn 1.000000 0.000000 -0.000062
vn 1.000000 0.000000 0.000000
vn 1.000000 -0.000066 0.000062
vn 1.000000 -0.000066 0.000034
vn 1.000000 0.000000 0.000013
vn 1.000000 0.000000 0.000000
vn 1.000000 0.000000 0.000000
vn -1.000000 0.000000 0.000000
vn -1.000000 0.000000 0.000013
vn -1.000000 0.000007 -0.000000
vn -1.000000 0.000000 0.000034
vn -1.000000 0.000000 0.000062
vn -1.000000 0.000000 0.000000
vn -1.000000 0.000033 -0.000062
vn -1.000000 0.000033 -0.000034
vn -1.000000 0.000000 -0.000013
vn -1.000000 0.000000 0.000000
vn -1.000000 0.000000 0.000000
vn 0.000000 0.587770 -0.809028
vn 0.000000 0.587770 -0.809028
vn 0.000000 0.587770 -0.809028
vn 0.000000 0.587770 -0.809028
vn -0.000000 0.000000 -1.000000
vn -0.000000 0.000000 -1.000000
vn -0.000000 0.000000 -1.000000
vn -0.000000 0.000000 -1.000000
vn 0.000000 -0.587770 -0.809028
vn 0.000000 -0.587770 -0.809028
vn 0.000000 -0.587770 -0.809028
vn 0.000000 -0.587770 -0.809028
vn 0.000000 -0.951057 -0.309015
vn 0.000000 -0.951057 -0.309015
vn 0.000000 -0.951057 -0.309015
vn 0.000000 -0.951057 -0.309015
vn 0.000000 -0.951057 0.309015
vn 0.000000 -0.951057 0.309015
vn 0.000000 -0.951057 0.309015
vn 0.000000 -0.951057 0.309015
vn 0.000000 -0.587770 0.809028
vn 0.000000 -0.587770 0.809028
vn 0.000000 -0.587770 0.809028
vn 0.000000 -0.587770 0.809028
vn -0.000001 0.000000 1.000000
vn -0.000001 0.000000 1.000000
vn -0.000001 0.000000 1.000000
vn -0.000001 0.000000 1.000000
vn 0.000000 0.587770 0.809028
vn 0.000000 0.587770 0.809028
vn 0.000000 0.587770 0.809028
vn 0.000000 0.587770 0.809028
vn -0.000000 0.951056 0.309020
vn -0.000000 0.951056 0.309020
vn -0.000000 0.951056 0.309020
vn -0.000000 0.951056 0.309020
vn 0.000000 0.951056 -0.309020
vn 0.000000 0.951056 -0.309020
vn 0.000000 0.951056 -0.309020
vn 0.000000 0.951056 -0.309020
vn 1.000000 -0.000066 -0.000013
vn 1.000000 0.000000 0.000000
vn 1.000000 -0.000047 -0.000000
vn 1.000000 -0.000100 -0.000034
vn 1.000000 -0.000033 -0.000062
vn 1.000000 0.000000 0.000000
vn 1.000000 -0.000066 0.000062
vn 1.000000 -0.000133 0.000034
vn 1.000000 -0.000066 0.000013
vn 1.000000 0.000000 0.000000
vn 1.000000 0.000000 0.000000
vn -1.000000 0.000000 0.000000
vn -1.000000 0.000066 0.000013
vn -1.000000 0.000047 -0.000000
vn -1.000000 0.000133 0.000034
vn -1.000000 0.000066 0.000062
vn -1.000000 0.000000 0.000000
vn -1.000000 0.000033 -0.000062
vn -1.000000 0.000100 -0.000034
vn -1.000000 0.000066 -0.000013
vn -1.000000 0.000000 0.000000
vn -1.000000 0.000000 0.000000
vn 0.000000 0.587770 -0.809028
vn 0.000000 0.587770 -0.809028
vn 0.000000 0.587770 -0.809028
vn 0.000000 0.587770 -0.809028
vn -0.000000 0.000000 -1.000000
vn -0.000000 0.000000 -1.000000
vn -0.000000 0.000000 -1.000000
vn -0.000000 0.000000 -1.000000
vn 0.000000 -0.587770 -0.809028
vn 0.000000 -0.587770 -0.809028
vn 0.000000 -0.587770 -0.809028
vn 0.000000 -0.587770 -0.809028
vn 0.000000 -0.951057 -0.309015
vn 0.000000 -0.951057 -0.309015
vn 0.000000 -0.951057 -0.309015
vn 0.000000 -0.951057 -0.309015
vn 0.000000 -0.951057 0.309015
vn 0.000000 -0.951057 0.309015
vn 0.000000 -0.951057 0.309015
vn 0.000000 -0.951057 0.309015
vn 0.000000 -0.587770 0.809028
vn 0.000000 -0.587770 0.809028
vn 0.000000 -0.587770 0.809028
vn 0.000000 -0.587770 0.809028
vn -0.000001 0.000000 1.000000
vn -0.000001 0.000000 1.000000
vn -0.000001 0.000000 1.000000
vn -0.000001 0.000000 1.000000
vn 0.000000 0.587770 0.809028
vn 0.000000 0.587770 0.809028
vn 0.000000 0.587770 0.809028
vn 0.000000 0.587770 0.809028
vn -0.000000 0.951056 0.309020
vn -0.000000 0.951056 0.309020
vn -0.000000 0.951056 0.309020
vn -0.000000 0.951056 0.309020
vn 0.000000 0.951056 -0.309020
vn 0.000000 0.951056 -0.309020
vn 0.000000 0.951056 -0.309020
vn 0.000000 0.951056 -0.309020
vn 1.000000 0.000000 0.000000
vn 1.000000 0.000000 0.000000
vn 1.000000 0.000000 0.000000
vn 1.000000 0.000000 0.000000
vn 1.000000 0.000000 0.000000
vn 1.000000 0.000000 0.000000
vn 1.000000 0.000000 0.000000
vn 1.000000 0.000000 0.000000
vn 1.000000 0.000000 0.000000
vn 1.000000 0.000000 0.000000
vn 1.000000 0.000000 0.000000
vn -1.000000 0.000000 0.000000
vn -1.000000 0.000000 0.000000
vn -1.000000 0.000000 0.000000
vn -1.000000 0.000000 0.000000
vn -1.000000 0.000000 0.000000
vn -1.000000 0.000000 0.000000
vn -1.000000 0.000000 0.000000
vn -1.000000 0.000000 0.000000
vn -1.000000 0.000000 0.000000
vn -1.000000 0.000000 0.000000
vn -1.000000 0.000000 0.000000
vn 0.000000 0.587770 -0.809028
vn 0.000000 0.587770 -0.809028
vn 0.000000 0.587770 -0.809028
vn 0.000000 0.587770 -0.809028
vn -0.000000 0.000000 -1.000000
vn -0.000000 0.000000 -1.000000
vn -0.000000 0.000000 -1.000000
vn -0.000000 0.000000 -1.000000
vn 0.000000 -0.587770 -0.809028
vn 0.000000 -0.587770 -0.809028
vn 0.000000 -0.587770 -0.809028
vn 0.000000 -0.587770 -0.809028
vn 0.000000 -0.951057 -0.309016
vn 0.000000 -0.951057 -0.309016
vn 0.000000 -0.951057 -0.309016
vn 0.000000 -0.951057 -0.309016
vn 0.000000 -0.951057 0.309016
vn 0.000000 -0.951057 0.309016
vn 0.000000 -0.951057 0.309016
vn 0.000000 -0.951057 0.309016
vn 0.000000 -0.587770 0.809028
vn 0.000000 -0.587770 0.809028
vn 0.000000 -0.587770 0.809028
vn 0.000000 -0.587770 0.809028
vn -0.000001 0.000000 1.000000
vn -0.000001 0.000000 1.000000
vn -0.000001 0.000000 1.000000
vn -0.000001 0.000000 1.000000
vn 0.000000 0.587770 0.809028
vn 0.000000 0.587770 0.809028
vn 0.000000 0.587770 0.809028
vn 0.000000 0.587770 0.809028
vn -0.000000 0.951056 0.309020
vn -0.000000 0.951056 0.309020
vn -0.000000 0.951056 0.309020
vn -0.000000 0.951056 0.309020
vn 0.000000 0.951056 -0.309020
vn 0.000000 0.951056 -0.309020
vn 0.000000 0.951056 -0.309020
vn 0.000000 0.951056 -0.309020
vn 1.000000 -0.000066 -0.000013
vn 1.000000 0.000000 0.000000
vn 1.000000 -0.000033 -0.000000
vn 1.000000 -0.000100 -0.000034
vn 1.000000 -0.000033 -0.000062
vn 1.000000 0.000000 0.000000
vn 1.000000 0.000000 0.000062
vn 1.000000 -0.000066 0.000034
vn 1.000000 -0.000066 0.000013
vn 1.000000 0.000000 0.000000
vn 1.000000 0.000000 0.000000
vn -1.000000 0.000000 0.000031
vn -1.000000 0.000000 0.000017
vn -1.000000 0.000000 0.000000
vn -1.000000 0.000000 0.000006
vn -1.000000 0.000000 0.000000
vn -1.000000 0.000000 0.000000
vn -1.000000 0.000000 0.000000
vn -1.000000 0.000000 -0.000006
vn -1.000000 0.000000 -0.000017
vn -1.000000 0.000000 -0.000031
vn -1.000000 0.000000 0.000000
s off
g pCylinder5
usemtl initialShadingGroup
f 1/103/1 2/107/2 12/108/3 11/104/4
f 2/107/5 3/95/6 13/96/7 12/108/8
f 3/95/9 4/89/10 14/92/11 13/96/12
f 4/89/13 5/90/14 15/91/15 14/92/16
f 5/90/17 6/93/18 16/94/19 15/91/20
f 6/93/21 7/97/22 17/98/23 16/94/24
f 7/159/25 8/105/26 18/106/27 17/160/28
f 8/105/29 9/99/30 19/102/31 18/106/32
f 9/99/33 10/100/34 20/101/35 19/102/36
f 10/100/37 1/103/38 11/104/39 20/101/40
s 1
f 2/1/41 1/2/42 21/3/43
f 3/5/44 2/1/41 21/3/43
f 4/7/45 3/5/44 21/3/43
f 5/9/46 4/7/45 21/3/43
f 6/11/47 5/9/46 21/3/43
f 7/10/48 6/11/47 21/3/43
f 8/8/49 7/10/48 21/3/43
f 9/6/50 8/8/49 21/3/43
f 10/4/51 9/6/50 21/3/43
f 1/2/42 10/4/51 21/3/43
s 2
f 11/12/52 12/13/53 22/14/54
f 12/13/53 13/15/55 22/14/54
f 13/15/55 14/17/56 22/14/54
f 14/17/56 15/19/57 22/14/54
f 15/19/57 16/21/58 22/14/54
f 16/21/58 17/22/59 22/14/54
f 17/22/59 18/20/60 22/14/54
f 18/20/60 19/18/61 22/14/54
f 19/18/61 20/16/62 22/14/54
f 20/16/62 11/12/52 22/14/54
s off
f 23/123/63 24/127/64 34/128/65 33/124/66
f 24/127/67 25/161/68 35/162/69 34/128/70
f 25/115/71 26/109/72 36/112/73 35/116/74
f 26/109/75 27/110/76 37/111/77 36/112/78
f 27/110/79 28/113/80 38/114/81 37/111/82
f 28/113/83 29/117/84 39/118/85 38/114/86
f 29/117/87 30/125/88 40/126/89 39/118/90
f 30/125/91 31/119/92 41/122/93 40/126/94
f 31/119/95 32/120/96 42/121/97 41/122/98
f 32/120/99 23/123/100 33/124/101 42/121/102
s 3
f 24/23/103 23/24/104 43/25/105
f 25/27/106 24/23/103 43/25/105
f 26/29/107 25/27/106 43/25/105
f 27/31/108 26/29/107 43/25/105
f 28/33/109 27/31/108 43/25/105
f 29/32/110 28/33/109 43/25/105
f 30/30/111 29/32/110 43/25/105
f 31/28/112 30/30/111 43/25/105
f 32/26/113 31/28/112 43/25/105
f 23/24/104 32/26/113 43/25/105
s 4
f 33/34/114 34/35/115 44/36/116
f 34/35/115 35/37/117 44/36/116
f 35/37/117 36/39/118 44/36/116
f 36/39/118 37/41/119 44/36/116
f 37/41/119 38/43/120 44/36/116
f 38/43/120 39/44/121 44/36/116
f 39/44/121 40/42/122 44/36/116
f 40/42/122 41/40/123 44/36/116
f 41/40/123 42/38/124 44/36/116
f 42/38/124 33/34/114 44/36/116
s off
f 45/136/125 46/138/126 56/176/127 55/168/128
f 46/138/129 47/163/130 57/166/131 56/176/132
f 47/132/133 48/129/134 58/174/135 57/175/136
f 48/129/137 49/130/138 59/173/139 58/174/140
f 49/130/141 50/131/142 60/172/143 59/173/144
f 50/131/145 51/133/146 61/171/147 60/172/148
f 51/133/149 52/137/150 62/170/151 61/171/152
f 52/137/153 53/134/154 63/169/155 62/170/156
f 53/134/157 54/135/158 64/167/159 63/169/160
f 54/135/161 45/136/162 55/168/163 64/167/164
s 5
f 46/45/165 45/46/166 65/47/167
f 47/49/168 46/45/165 65/47/167
f 48/51/169 47/49/168 65/47/167
f 49/53/170 48/51/169 65/47/167
f 50/55/171 49/53/170 65/47/167
f 51/54/172 50/55/171 65/47/167
f 52/52/173 51/54/172 65/47/167
f 53/50/174 52/52/173 65/47/167
f 54/48/175 53/50/174 65/47/167
f 45/46/166 54/48/175 65/47/167
s 6
f 55/56/176 56/57/177 66/58/178
f 56/57/177 57/59/179 66/58/178
f 57/59/179 58/61/180 66/58/178
f 58/61/180 59/63/181 66/58/178
f 59/63/181 60/65/182 66/58/178
f 60/65/182 61/66/183 66/58/178
f 61/66/183 62/64/184 66/58/178
f 62/64/184 63/62/185 66/58/178
f 63/62/185 64/60/186 66/58/178
f 64/60/186 55/56/176 66/58/178
s off
f 67/153/187 68/157/188 78/158/189 77/154/190
f 68/164/191 69/145/192 79/146/193 78/165/194
f 69/145/195 70/139/196 80/142/197 79/146/198
f 70/139/199 71/140/200 81/141/201 80/142/202
f 71/140/203 72/143/204 82/144/205 81/141/206
f 72/143/207 73/147/208 83/148/209 82/144/210
f 73/147/211 74/155/212 84/156/213 83/148/214
f 74/155/215 75/149/216 85/152/217 84/156/218
f 75/149/219 76/150/220 86/151/221 85/152/222
f 76/150/223 67/153/224 77/154/225 86/151/226
s 7
f 68/67/227 67/68/228 87/69/229
f 69/71/230 68/67/227 87/69/229
f 70/73/231 69/71/230 87/69/229
f 71/75/232 70/73/231 87/69/229
f 72/77/233 71/75/232 87/69/229
f 73/76/234 72/77/233 87/69/229
f 74/74/235 73/76/234 87/69/229
f 75/72/236 74/74/235 87/69/229
f 76/70/237 75/72/236 87/69/229
f 67/68/228 76/70/237 87/69/229
s 8
f 77/78/238 78/79/239 88/80/240
f 78/79/239 79/81/241 88/80/240
f 79/81/241 80/83/242 88/80/240
f 80/83/242 81/85/243 88/80/240
f 81/85/243 82/87/244 88/80/240
f 82/87/244 83/88/245 88/80/240
f 83/88/245 84/86/246 88/80/240
f 84/86/246 85/84/247 88/80/240
f 85/84/247 86/82/248 88/80/240
f 86/82/248 77/78/238 88/80/240
