# This file uses centimeters as units for non-parametric coordinates.

mtllib FloorLP.mtl
g default
v 614.169373 -24.193710 -12.446533
v 614.169373 -24.193710 -11.446533
v 615.169373 -24.193710 -12.446533
v 615.169373 -24.193710 -11.446533
vt 0.571436 0.999983
vt 0.714291 0.999983
vt 0.714291 0.857128
vt 0.571436 0.857128
vn 0.000000 1.000000 0.000000
vn 0.000000 1.000000 0.000000
vn 0.000000 1.000000 0.000000
vn 0.000000 1.000000 0.000000
s off
g polySurface24879 polySurface24848
usemtl lambert9SG
f 3/1/1 1/2/2 2/3/3 4/4/4
g default
v 616.169434 -24.193710 -11.446655
v 616.169434 -24.193710 -10.446655
v 617.169434 -24.193710 -11.446655
v 617.169434 -24.193710 -10.446655
vt 0.285718 0.857145
vt 0.428573 0.857145
vt 0.428573 0.714291
vt 0.285718 0.714291
vn 0.000000 1.000000 0.000000
vn 0.000000 1.000000 0.000000
vn 0.000000 1.000000 0.000000
vn 0.000000 1.000000 0.000000
s off
g polySurface24848 polySurface24880
usemtl lambert9SG
f 7/5/5 5/6/6 6/7/7 8/8/8
g default
v 615.169373 -24.193710 -11.446655
v 615.169434 -24.193710 -10.446655
v 616.169434 -24.193710 -11.446655
v 616.169434 -24.193710 -10.446655
vt 0.428573 0.857145
vt 0.571436 0.857145
vt 0.571427 0.714291
vt 0.428573 0.714291
vn 0.000000 1.000000 0.000000
vn 0.000000 1.000000 0.000000
vn 0.000000 1.000000 0.000000
vn 0.000000 1.000000 0.000000
s off
g polySurface24848 polySurface24881
usemtl lambert9SG
f 11/9/9 9/10/10 10/11/11 12/12/12
g default
v 614.169373 -24.193710 -11.446533
v 614.169373 -24.193710 -10.446533
v 615.169373 -24.193710 -11.446533
v 615.169373 -24.193710 -10.446533
vt 0.571436 0.857128
vt 0.714291 0.857128
vt 0.714291 0.714273
vt 0.571436 0.714273
vn 0.000000 1.000000 0.000000
vn 0.000000 1.000000 0.000000
vn 0.000000 1.000000 0.000000
vn 0.000000 1.000000 0.000000
s off
g polySurface24848 polySurface24882
usemtl lambert9SG
f 15/13/13 13/14/14 14/15/15 16/16/16
g default
v 613.169373 -24.193710 -9.446587
v 614.169373 -24.193710 -9.446617
v 613.169373 -24.193710 -10.446617
v 614.169373 -24.193710 -10.446617
vt 0.857145 0.714285
vt 0.857145 0.571426
vt 0.714291 0.571431
vt 0.714291 0.714285
vn 0.000000 1.000000 0.000000
vn 0.000000 1.000000 0.000000
vn 0.000000 1.000000 0.000000
vn 0.000000 1.000000 0.000000
s off
g polySurface24848 polySurface24883
usemtl lambert9SG
f 19/17/17 17/18/18 18/19/19 20/20/20
g default
v 612.169373 -24.193710 -9.446587
v 613.169373 -24.193710 -9.446617
v 612.169373 -24.193710 -10.446617
v 613.169373 -24.193710 -10.446617
vt 1.000000 0.714285
vt 1.000000 0.571426
vt 0.857145 0.571431
vt 0.857145 0.714285
vn 0.000000 1.000000 0.000000
vn 0.000000 1.000000 0.000000
vn 0.000000 1.000000 0.000000
vn 0.000000 1.000000 0.000000
s off
g polySurface24848 polySurface24884
usemtl lambert9SG
f 23/21/21 21/22/22 22/23/23 24/24/24
g default
v 613.169373 -24.193710 -8.446556
v 614.169373 -24.193710 -8.446587
v 613.169373 -24.193710 -9.446587
v 614.169373 -24.193710 -9.446587
vt 0.857145 0.571426
vt 0.857145 0.428567
vt 0.714291 0.428572
vt 0.714291 0.571426
vn 0.000000 1.000000 0.000000
vn 0.000000 1.000000 0.000000
vn 0.000000 1.000000 0.000000
vn 0.000000 1.000000 0.000000
s off
g polySurface24848 polySurface24885
usemtl lambert9SG
f 27/25/25 25/26/26 26/27/27 28/28/28
g default
v 614.169373 -24.193710 -8.446556
v 615.169373 -24.193710 -8.446587
v 614.169373 -24.193710 -9.446587
v 615.169373 -24.193710 -9.446587
vt 0.714291 0.571426
vt 0.714291 0.428567
vt 0.571436 0.428572
vt 0.571436 0.571426
vn 0.000000 1.000000 0.000000
vn 0.000000 1.000000 0.000000
vn 0.000000 1.000000 0.000000
vn 0.000000 1.000000 0.000000
s off
g polySurface24848 polySurface24886
usemtl lambert9SG
f 31/29/29 29/30/30 30/31/31 32/32/32
g default
v 613.169495 -24.193710 -7.446526
v 614.169495 -24.193710 -7.446556
v 613.169495 -24.193710 -8.446556
v 614.169495 -24.193710 -8.446556
vt 0.857128 0.428567
vt 0.857128 0.285708
vt 0.714273 0.285713
vt 0.714273 0.428567
vn 0.000000 1.000000 0.000000
vn 0.000000 1.000000 0.000000
vn 0.000000 1.000000 0.000000
vn 0.000000 1.000000 0.000000
s off
g polySurface24848 polySurface24887
usemtl lambert9SG
f 35/33/33 33/34/34 34/35/35 36/36/36
g default
v 615.169373 -24.193710 -9.446587
v 616.169373 -24.193710 -9.446617
v 615.169373 -24.193710 -10.446617
v 616.169373 -24.193710 -10.446617
vt 0.571436 0.714285
vt 0.571436 0.571426
vt 0.428581 0.571431
vt 0.428581 0.714285
vn 0.000000 1.000000 0.000000
vn 0.000000 1.000000 0.000000
vn 0.000000 1.000000 0.000000
vn 0.000000 1.000000 0.000000
s off
g polySurface24848 polySurface24888
usemtl lambert9SG
f 39/37/37 37/38/38 38/39/39 40/40/40
g default
v 616.169373 -24.193710 -8.446556
v 617.169373 -24.193710 -8.446587
v 616.169373 -24.193710 -9.446587
v 617.169373 -24.193710 -9.446587
vt 0.428581 0.571426
vt 0.428581 0.428567
vt 0.285727 0.428572
vt 0.285727 0.571426
vn 0.000000 1.000000 0.000000
vn 0.000000 1.000000 0.000000
vn 0.000000 1.000000 0.000000
vn 0.000000 1.000000 0.000000
s off
g polySurface24848 polySurface24889
usemtl lambert9SG
f 43/41/41 41/42/42 42/43/43 44/44/44
g default
v 616.169495 -24.193710 -7.446526
v 617.169495 -24.193710 -7.446556
v 616.169495 -24.193710 -8.446556
v 617.169495 -24.193710 -8.446556
vt 0.428564 0.428567
vt 0.428564 0.285708
vt 0.285709 0.285713
vt 0.285709 0.428567
vn 0.000000 1.000000 0.000000
vn 0.000000 1.000000 0.000000
vn 0.000000 1.000000 0.000000
vn 0.000000 1.000000 0.000000
s off
g polySurface24848 polySurface24890
usemtl lambert9SG
f 47/45/45 45/46/46 46/47/47 48/48/48
g default
v 617.169373 -24.193710 -9.446587
v 618.169373 -24.193710 -9.446617
v 617.169373 -24.193710 -10.446617
v 618.169373 -24.193710 -10.446617
vt 0.285727 0.714285
vt 0.285727 0.571426
vt 0.142872 0.571431
vt 0.142872 0.714285
vn 0.000000 1.000000 0.000000
vn 0.000000 1.000000 0.000000
vn 0.000000 1.000000 0.000000
vn 0.000000 1.000000 0.000000
s off
g polySurface24848 polySurface24891
usemtl lambert9SG
f 51/49/49 49/50/50 50/51/51 52/52/52
g default
v 618.169373 -24.193710 -9.446587
v 619.169373 -24.193710 -9.446617
v 618.169373 -24.193710 -10.446617
v 619.169373 -24.193710 -10.446617
vt 0.142872 0.714285
vt 0.142872 0.571426
vt 0.000017 0.571431
vt 0.000017 0.714285
vn 0.000000 1.000000 0.000000
vn 0.000000 1.000000 0.000000
vn 0.000000 1.000000 0.000000
vn 0.000000 1.000000 0.000000
s off
g polySurface24848 polySurface24892
usemtl lambert9SG
f 55/53/53 53/54/54 54/55/55 56/56/56
g default
v 618.169373 -24.193710 -8.446556
v 619.169373 -24.193710 -8.446587
v 618.169373 -24.193710 -9.446587
v 619.169373 -24.193710 -9.446587
vt 0.142872 0.571426
vt 0.142872 0.428567
vt 0.000017 0.428572
vt 0.000017 0.571426
vn 0.000000 1.000000 0.000000
vn 0.000000 1.000000 0.000000
vn 0.000000 1.000000 0.000000
vn 0.000000 1.000000 0.000000
s off
g polySurface24848 polySurface24893
usemtl lambert9SG
f 59/57/57 57/58/58 58/59/59 60/60/60
g default
v 617.169495 -24.193710 -7.446526
v 618.169495 -24.193710 -7.446556
v 617.169495 -24.193710 -8.446556
v 618.169495 -24.193710 -8.446556
vt 0.285709 0.428567
vt 0.285709 0.285708
vt 0.142855 0.285713
vt 0.142855 0.428567
vn 0.000000 1.000000 0.000000
vn 0.000000 1.000000 0.000000
vn 0.000000 1.000000 0.000000
vn 0.000000 1.000000 0.000000
s off
g polySurface24848 polySurface24894
usemtl lambert9SG
f 63/61/61 61/62/62 62/63/63 64/64/64
g default
v 617.169373 -24.193710 -8.446556
v 618.169373 -24.193710 -8.446587
v 617.169373 -24.193710 -9.446587
v 618.169373 -24.193710 -9.446587
vt 0.285727 0.571426
vt 0.285727 0.428567
vt 0.142872 0.428572
vt 0.142872 0.571426
vn 0.000000 1.000000 0.000000
vn 0.000000 1.000000 0.000000
vn 0.000000 1.000000 0.000000
vn 0.000000 1.000000 0.000000
s off
g polySurface24848 polySurface24895
usemtl lambert9SG
f 67/65/65 65/66/66 66/67/67 68/68/68
g default
v 618.169495 -24.193710 -7.446526
v 619.169495 -24.193710 -7.446556
v 618.169495 -24.193710 -8.446556
v 619.169495 -24.193710 -8.446556
vt 0.142855 0.428567
vt 0.142855 0.285708
vt 0.000000 0.285713
vt 0.000000 0.428567
vn 0.000000 1.000000 0.000000
vn 0.000000 1.000000 0.000000
vn 0.000000 1.000000 0.000000
vn 0.000000 1.000000 0.000000
s off
g polySurface24848 polySurface24896
usemtl lambert9SG
f 71/69/69 69/70/70 70/71/71 72/72/72
g default
v 616.169373 -24.193710 -9.446587
v 617.169373 -24.193710 -9.446617
v 616.169373 -24.193710 -10.446617
v 617.169373 -24.193710 -10.446617
vt 0.428581 0.714285
vt 0.428581 0.571426
vt 0.285727 0.571431
vt 0.285727 0.714285
vn 0.000000 1.000000 0.000000
vn 0.000000 1.000000 0.000000
vn 0.000000 1.000000 0.000000
vn 0.000000 1.000000 0.000000
s off
g polySurface24848 polySurface24897
usemtl lambert9SG
f 75/73/73 73/74/74 74/75/75 76/76/76
g default
v 616.169434 -24.193710 -12.446655
v 616.169434 -24.193710 -11.446655
v 617.169434 -24.193710 -12.446655
v 617.169434 -24.193710 -11.446655
vt 0.285718 1.000000
vt 0.428573 1.000000
vt 0.428573 0.857145
vt 0.285718 0.857145
vn 0.000000 1.000000 0.000000
vn 0.000000 1.000000 0.000000
vn 0.000000 1.000000 0.000000
vn 0.000000 1.000000 0.000000
s off
g polySurface24848 polySurface24898
usemtl lambert9SG
f 79/77/77 77/78/78 78/79/79 80/80/80
g default
v 615.169373 -24.193710 -12.446655
v 615.169434 -24.193710 -11.446655
v 616.169434 -24.193710 -12.446655
v 616.169434 -24.193710 -11.446655
vt 0.428573 1.000000
vt 0.571436 1.000000
vt 0.571427 0.857145
vt 0.428573 0.857145
vn 0.000000 1.000000 0.000000
vn 0.000000 1.000000 0.000000
vn 0.000000 1.000000 0.000000
vn 0.000000 1.000000 0.000000
s off
g polySurface24848 polySurface24899
usemtl lambert9SG
f 83/81/81 81/82/82 82/83/83 84/84/84
g default
v 614.169373 -24.193710 -9.446587
v 615.169373 -24.193710 -9.446617
v 614.169373 -24.193710 -10.446617
v 615.169373 -24.193710 -10.446617
vt 0.714291 0.714285
vt 0.714291 0.571426
vt 0.571436 0.571431
vt 0.571436 0.714285
vn 0.000000 1.000000 0.000000
vn 0.000000 1.000000 0.000000
vn 0.000000 1.000000 0.000000
vn 0.000000 1.000000 0.000000
s off
g polySurface24848 polySurface24900
usemtl lambert9SG
f 87/85/85 85/86/86 86/87/87 88/88/88
g default
v 615.169373 -24.193710 -8.446556
v 616.169373 -24.193710 -8.446587
v 615.169373 -24.193710 -9.446587
v 616.169373 -24.193710 -9.446587
vt 0.571436 0.571426
vt 0.571436 0.428567
vt 0.428581 0.428572
vt 0.428581 0.571426
vn 0.000000 1.000000 0.000000
vn 0.000000 1.000000 0.000000
vn 0.000000 1.000000 0.000000
vn 0.000000 1.000000 0.000000
s off
g polySurface24848 polySurface24901
usemtl lambert9SG
f 91/89/89 89/90/90 90/91/91 92/92/92
g default
v 612.169373 -24.193710 -8.446556
v 613.169373 -24.193710 -8.446587
v 612.169373 -24.193710 -9.446587
v 613.169373 -24.193710 -9.446587
vt 1.000000 0.571426
vt 1.000000 0.428567
vt 0.857145 0.428572
vt 0.857145 0.571426
vn 0.000000 1.000000 0.000000
vn 0.000000 1.000000 0.000000
vn 0.000000 1.000000 0.000000
vn 0.000000 1.000000 0.000000
s off
g polySurface24848 polySurface24902
usemtl lambert9SG
f 95/93/93 93/94/94 94/95/95 96/96/96
g default
v 612.169495 -24.193710 -7.446526
v 613.169495 -24.193710 -7.446556
v 612.169495 -24.193710 -8.446556
v 613.169495 -24.193710 -8.446556
vt 0.999983 0.428567
vt 0.999983 0.285708
vt 0.857128 0.285713
vt 0.857128 0.428567
vn 0.000000 1.000000 0.000000
vn 0.000000 1.000000 0.000000
vn 0.000000 1.000000 0.000000
vn 0.000000 1.000000 0.000000
s off
g polySurface24848 polySurface24903
usemtl lambert9SG
f 99/97/97 97/98/98 98/99/99 100/100/100
g default
v 614.169373 -24.193710 -7.446533
v 614.169373 -24.193710 -6.446533
v 615.169373 -24.193710 -7.446533
v 615.169373 -24.193710 -6.446533
vt 0.571436 0.285709
vt 0.714291 0.285709
vt 0.714291 0.142855
vt 0.571436 0.142855
vn 0.000000 1.000000 0.000000
vn 0.000000 1.000000 0.000000
vn 0.000000 1.000000 0.000000
vn 0.000000 1.000000 0.000000
s off
g polySurface24848 polySurface24904
usemtl lambert9SG
f 103/101/101 101/102/102 102/103/103 104/104/104
g default
v 615.169373 -24.193710 -7.446655
v 615.169434 -24.193710 -6.446655
v 616.169434 -24.193710 -7.446655
v 616.169434 -24.193710 -6.446655
vt 0.428573 0.285727
vt 0.571436 0.285727
vt 0.571427 0.142872
vt 0.428573 0.142872
vn 0.000000 1.000000 0.000000
vn 0.000000 1.000000 0.000000
vn 0.000000 1.000000 0.000000
vn 0.000000 1.000000 0.000000
s off
g polySurface24848 polySurface24905
usemtl lambert9SG
f 107/105/105 105/106/106 106/107/107 108/108/108
g default
v 615.169373 -24.193710 -6.446655
v 615.169434 -24.193710 -5.446655
v 616.169434 -24.193710 -6.446655
v 616.169434 -24.193710 -5.446655
vt 0.428573 0.142872
vt 0.571436 0.142872
vt 0.571427 0.000017
vt 0.428573 0.000017
vn 0.000000 1.000000 0.000000
vn 0.000000 1.000000 0.000000
vn 0.000000 1.000000 0.000000
vn 0.000000 1.000000 0.000000
s off
g polySurface24848 polySurface24906
usemtl lambert9SG
f 111/109/109 109/110/110 110/111/111 112/112/112
g default
v 614.169373 -24.193710 -6.446533
v 614.169373 -24.193710 -5.446533
v 615.169373 -24.193710 -6.446533
v 615.169373 -24.193710 -5.446533
vt 0.571436 0.142855
vt 0.714291 0.142855
vt 0.714291 0.000000
vt 0.571436 0.000000
vn 0.000000 1.000000 0.000000
vn 0.000000 1.000000 0.000000
vn 0.000000 1.000000 0.000000
vn 0.000000 1.000000 0.000000
s off
g polySurface24848 polySurface24907
usemtl lambert9SG
f 115/113/113 113/114/114 114/115/115 116/116/116
g default
v 615.169495 -24.193710 -7.446526
v 616.169495 -24.193710 -7.446556
v 615.169495 -24.193710 -8.446556
v 616.169495 -24.193710 -8.446556
vt 0.571419 0.428567
vt 0.571419 0.285708
vt 0.428564 0.285713
vt 0.428564 0.428567
vn 0.000000 1.000000 0.000000
vn 0.000000 1.000000 0.000000
vn 0.000000 1.000000 0.000000
vn 0.000000 1.000000 0.000000
s off
g polySurface24848 polySurface24908
usemtl lambert9SG
f 119/117/117 117/118/118 118/119/119 120/120/120
g default
v 614.169495 -24.193710 -7.446526
v 615.169495 -24.193710 -7.446556
v 614.169495 -24.193710 -8.446556
v 615.169495 -24.193710 -8.446556
vt 0.714273 0.428567
vt 0.714273 0.285708
vt 0.571419 0.285713
vt 0.571419 0.428567
vn 0.000000 1.000000 0.000000
vn 0.000000 1.000000 0.000000
vn 0.000000 1.000000 0.000000
vn 0.000000 1.000000 0.000000
s off
g polySurface24848 polySurface24909
usemtl lambert9SG
f 123/121/121 121/122/122 122/123/123 124/124/124
g default
v 616.169434 -24.193710 -7.446655
v 616.169434 -24.193710 -6.446655
v 617.169434 -24.193710 -7.446655
v 617.169434 -24.193710 -6.446655
vt 0.285718 0.285727
vt 0.428573 0.285727
vt 0.428573 0.142872
vt 0.285718 0.142872
vn 0.000000 1.000000 0.000000
vn 0.000000 1.000000 0.000000
vn 0.000000 1.000000 0.000000
vn 0.000000 1.000000 0.000000
s off
g polySurface24848 polySurface24910
usemtl lambert9SG
f 127/125/125 125/126/126 126/127/127 128/128/128
g default
v 616.169434 -24.193710 -6.446655
v 616.169434 -24.193710 -5.446655
v 617.169434 -24.193710 -6.446655
v 617.169434 -24.193710 -5.446655
vt 0.285718 0.142872
vt 0.428573 0.142872
vt 0.428573 0.000017
vt 0.285718 0.000017
vn 0.000000 1.000000 0.000000
vn 0.000000 1.000000 0.000000
vn 0.000000 1.000000 0.000000
vn 0.000000 1.000000 0.000000
s off
g polySurface24848 polySurface24911
usemtl lambert9SG
f 131/129/129 129/130/130 130/131/131 132/132/132
