# This file uses centimeters as units for non-parametric coordinates.

mtllib CILINDER.mtl
g default
v -1.000000 -0.242144 2.441231
v -1.000000 -0.205980 2.370255
v -1.000000 -0.149653 2.313928
v -1.000000 -0.078677 2.277765
v -1.000000 0.000000 2.265303
v -1.000000 0.078677 2.277765
v -1.000000 0.149653 2.313929
v -1.000000 0.205980 2.370255
v -1.000000 0.242144 2.441231
v -1.000000 0.254605 2.519908
v -1.000000 0.242144 2.598586
v -1.000000 0.205980 2.669562
v -1.000000 0.149653 2.725888
v -1.000000 0.078677 2.762052
v -1.000000 0.000000 2.774513
v -1.000000 -0.078677 2.762052
v -1.000000 -0.149653 2.725888
v -1.000000 -0.205980 2.669562
v -1.000000 -0.242144 2.598586
v -1.000000 -0.254605 2.519908
v 1.000000 -0.242144 2.441231
v 1.000000 -0.205980 2.370255
v 1.000000 -0.149653 2.313928
v 1.000000 -0.078677 2.277765
v 1.000000 0.000000 2.265303
v 1.000000 0.078677 2.277765
v 1.000000 0.149653 2.313929
v 1.000000 0.205980 2.370255
v 1.000000 0.242144 2.441231
v 1.000000 0.254605 2.519908
v 1.000000 0.242144 2.598586
v 1.000000 0.205980 2.669562
v 1.000000 0.149653 2.725888
v 1.000000 0.078677 2.762052
v 1.000000 0.000000 2.774513
v 1.000000 -0.078677 2.762052
v 1.000000 -0.149653 2.725888
v 1.000000 -0.205980 2.669562
v 1.000000 -0.242144 2.598586
v 1.000000 -0.254605 2.519908
v -1.000000 0.000000 2.519908
v 1.000000 0.000000 2.519908
vt 0.989113 0.083186
vt 0.972013 0.049626
vt 0.945379 0.022992
vt 0.911819 0.005892
vt 0.874617 0.000000
vt 0.837415 0.005892
vt 0.803855 0.022992
vt 0.777221 0.049626
vt 0.760121 0.083186
vt 0.754229 0.120388
vt 0.760121 0.157590
vt 0.777221 0.191150
vt 0.803855 0.217784
vt 0.837415 0.234884
vt 0.874617 0.240776
vt 0.911819 0.234884
vt 0.945379 0.217784
vt 0.972013 0.191150
vt 0.989113 0.157590
vt 0.995005 0.120388
vt 0.000000 0.002444
vt 0.037666 0.002322
vt 0.075331 0.002199
vt 0.112997 0.002077
vt 0.150662 0.001955
vt 0.188327 0.001833
vt 0.225993 0.001711
vt 0.263659 0.001589
vt 0.301324 0.001466
vt 0.338990 0.001344
vt 0.376655 0.001222
vt 0.414321 0.001100
vt 0.451986 0.000978
vt 0.489651 0.000855
vt 0.527317 0.000733
vt 0.564982 0.000611
vt 0.602648 0.000489
vt 0.640313 0.000367
vt 0.677979 0.000245
vt 0.715644 0.000123
vt 0.753310 0.000000
vt 0.003067 0.948123
vt 0.040733 0.948001
vt 0.078398 0.947879
vt 0.116064 0.947757
vt 0.153729 0.947635
vt 0.191395 0.947512
vt 0.229060 0.947390
vt 0.266726 0.947268
vt 0.304391 0.947146
vt 0.342057 0.947024
vt 0.379722 0.946902
vt 0.417388 0.946779
vt 0.455053 0.946657
vt 0.492719 0.946535
vt 0.530384 0.946413
vt 0.568050 0.946291
vt 0.605715 0.946169
vt 0.643381 0.946046
vt 0.681046 0.945924
vt 0.718712 0.945802
vt 0.756377 0.945680
vt 0.994108 0.323887
vt 0.977008 0.290327
vt 0.950374 0.263693
vt 0.916814 0.246593
vt 0.879612 0.240701
vt 0.842410 0.246593
vt 0.808850 0.263693
vt 0.782216 0.290327
vt 0.765116 0.323887
vt 0.759224 0.361089
vt 0.765116 0.398291
vt 0.782216 0.431851
vt 0.808850 0.458485
vt 0.842410 0.475585
vt 0.879612 0.481477
vt 0.916814 0.475585
vt 0.950374 0.458485
vt 0.977008 0.431851
vt 0.994108 0.398291
vt 1.000000 0.361089
vt 0.874617 0.120388
vt 0.879612 0.361089
vn 0.000000 -0.951057 -0.309016
vn 0.000000 -0.809017 -0.587785
vn 0.000000 -0.809017 -0.587785
vn 0.000000 -0.951057 -0.309016
vn 0.000000 -0.587785 -0.809017
vn 0.000000 -0.587785 -0.809017
vn 0.000000 -0.309017 -0.951057
vn 0.000000 -0.309017 -0.951057
vn 0.000000 0.000000 -1.000000
vn 0.000000 0.000000 -1.000000
vn 0.000000 0.309018 -0.951056
vn 0.000000 0.309018 -0.951056
vn 0.000000 0.587785 -0.809017
vn 0.000000 0.587785 -0.809017
vn 0.000000 0.809017 -0.587786
vn 0.000000 0.809017 -0.587786
vn 0.000000 0.951057 -0.309017
vn 0.000000 0.951057 -0.309017
vn 0.000000 1.000000 0.000000
vn 0.000000 1.000000 0.000000
vn 0.000000 0.951057 0.309017
vn 0.000000 0.951057 0.309017
vn 0.000000 0.809017 0.587786
vn 0.000000 0.809017 0.587786
vn 0.000000 0.587785 0.809017
vn 0.000000 0.587785 0.809017
vn 0.000000 0.309017 0.951057
vn 0.000000 0.309017 0.951057
vn 0.000000 0.000000 1.000000
vn 0.000000 0.000000 1.000000
vn 0.000000 -0.309017 0.951057
vn 0.000000 -0.309017 0.951057
vn 0.000000 -0.587785 0.809017
vn 0.000000 -0.587785 0.809017
vn 0.000000 -0.809017 0.587785
vn 0.000000 -0.809017 0.587785
vn 0.000000 -0.951057 0.309017
vn 0.000000 -0.951057 0.309017
vn 0.000000 -1.000000 0.000001
vn 0.000000 -1.000000 0.000001
vn -1.000000 0.000000 0.000000
vn -1.000000 0.000000 0.000000
vn -1.000000 0.000000 0.000000
vn -1.000000 0.000000 0.000000
vn -1.000000 0.000000 0.000000
vn -1.000000 0.000000 0.000000
vn -1.000000 0.000000 0.000000
vn -1.000000 0.000000 0.000000
vn -1.000000 0.000000 0.000000
vn -1.000000 0.000000 0.000000
vn -1.000000 0.000000 0.000000
vn -1.000000 0.000000 0.000000
vn -1.000000 0.000000 0.000000
vn -1.000000 0.000000 0.000000
vn -1.000000 0.000000 0.000000
vn -1.000000 0.000000 0.000000
vn -1.000000 0.000000 0.000000
vn -1.000000 0.000000 0.000000
vn -1.000000 0.000000 0.000000
vn -1.000000 0.000000 0.000000
vn -1.000000 0.000000 0.000000
vn 1.000000 0.000000 0.000000
vn 1.000000 0.000000 0.000000
vn 1.000000 0.000000 0.000000
vn 1.000000 0.000000 0.000000
vn 1.000000 0.000000 0.000000
vn 1.000000 0.000000 0.000000
vn 1.000000 0.000000 0.000000
vn 1.000000 0.000000 0.000000
vn 1.000000 0.000000 0.000000
vn 1.000000 0.000000 0.000000
vn 1.000000 0.000000 0.000000
vn 1.000000 0.000000 0.000000
vn 1.000000 0.000000 0.000000
vn 1.000000 0.000000 0.000000
vn 1.000000 0.000000 0.000000
vn 1.000000 0.000000 0.000000
vn 1.000000 0.000000 0.000000
vn 1.000000 0.000000 0.000000
vn 1.000000 0.000000 0.000000
vn 1.000000 0.000000 0.000000
vn 1.000000 0.000000 0.000000
s 1
g pCylinder50
usemtl initialShadingGroup
f 1/21/1 2/22/2 22/43/3 21/42/4
f 2/22/2 3/23/5 23/44/6 22/43/3
f 3/23/5 4/24/7 24/45/8 23/44/6
f 4/24/7 5/25/9 25/46/10 24/45/8
f 5/25/9 6/26/11 26/47/12 25/46/10
f 6/26/11 7/27/13 27/48/14 26/47/12
f 7/27/13 8/28/15 28/49/16 27/48/14
f 8/28/15 9/29/17 29/50/18 28/49/16
f 9/29/17 10/30/19 30/51/20 29/50/18
f 10/30/19 11/31/21 31/52/22 30/51/20
f 11/31/21 12/32/23 32/53/24 31/52/22
f 12/32/23 13/33/25 33/54/26 32/53/24
f 13/33/25 14/34/27 34/55/28 33/54/26
f 14/34/27 15/35/29 35/56/30 34/55/28
f 15/35/29 16/36/31 36/57/32 35/56/30
f 16/36/31 17/37/33 37/58/34 36/57/32
f 17/37/33 18/38/35 38/59/36 37/58/34
f 18/38/35 19/39/37 39/60/38 38/59/36
f 19/39/37 20/40/39 40/61/40 39/60/38
f 20/40/39 1/41/1 21/62/4 40/61/40
s 2
f 2/2/41 1/1/42 41/83/43
f 3/3/44 2/2/41 41/83/43
f 4/4/45 3/3/44 41/83/43
f 5/5/46 4/4/45 41/83/43
f 6/6/47 5/5/46 41/83/43
f 7/7/48 6/6/47 41/83/43
f 8/8/49 7/7/48 41/83/43
f 9/9/50 8/8/49 41/83/43
f 10/10/51 9/9/50 41/83/43
f 11/11/52 10/10/51 41/83/43
f 12/12/53 11/11/52 41/83/43
f 13/13/54 12/12/53 41/83/43
f 14/14/55 13/13/54 41/83/43
f 15/15/56 14/14/55 41/83/43
f 16/16/57 15/15/56 41/83/43
f 17/17/58 16/16/57 41/83/43
f 18/18/59 17/17/58 41/83/43
f 19/19/60 18/18/59 41/83/43
f 20/20/61 19/19/60 41/83/43
f 1/1/42 20/20/61 41/83/43
s 3
f 21/81/62 22/80/63 42/84/64
f 22/80/63 23/79/65 42/84/64
f 23/79/65 24/78/66 42/84/64
f 24/78/66 25/77/67 42/84/64
f 25/77/67 26/76/68 42/84/64
f 26/76/68 27/75/69 42/84/64
f 27/75/69 28/74/70 42/84/64
f 28/74/70 29/73/71 42/84/64
f 29/73/71 30/72/72 42/84/64
f 30/72/72 31/71/73 42/84/64
f 31/71/73 32/70/74 42/84/64
f 32/70/74 33/69/75 42/84/64
f 33/69/75 34/68/76 42/84/64
f 34/68/76 35/67/77 42/84/64
f 35/67/77 36/66/78 42/84/64
f 36/66/78 37/65/79 42/84/64
f 37/65/79 38/64/80 42/84/64
f 38/64/80 39/63/81 42/84/64
f 39/63/81 40/82/82 42/84/64
f 40/82/82 21/81/62 42/84/64
